<svg id="visual" viewBox="0 0 900 600" width="900" height="600" xmlns="http://www.w3.org/2000/svg" xmlns:xlink="http://www.w3.org/1999/xlink" version="1.1"><rect x="0" y="0" width="900" height="600" fill="#001220"></rect><defs><linearGradient id="grad1_0" x1="33.3%" y1="0%" x2="100%" y2="100%"><stop offset="20%" stop-color="#001220" stop-opacity="1"></stop><stop offset="80%" stop-color="#001220" stop-opacity="1"></stop></linearGradient></defs><defs><linearGradient id="grad2_0" x1="0%" y1="0%" x2="66.7%" y2="100%"><stop offset="20%" stop-color="#001220" stop-opacity="1"></stop><stop offset="80%" stop-color="#001220" stop-opacity="1"></stop></linearGradient></defs><g transform="translate(900, 0)"><path d="M0 378.6C-24.1 333.8 -48.2 289.1 -71.7 267.6C-95.2 246.1 -118.1 247.8 -140 242.5C-161.9 237.2 -182.7 224.8 -217.8 217.8C-252.9 210.8 -302.1 209.2 -327.9 189.3C-353.6 169.4 -355.8 131.1 -360.3 96.5C-364.8 61.9 -371.7 31 -378.6 0L0 0Z" fill="#FBAE3C"></path></g><g transform="translate(0, 600)"><path d="M0 -378.6C32.1 -373.8 64.1 -369 97.1 -362.2C130 -355.5 163.8 -346.8 189.3 -327.9C214.8 -308.9 232.1 -279.7 256 -256C279.8 -232.2 310.3 -213.8 323 -186.5C335.8 -159.2 330.8 -122.9 337.1 -90.3C343.4 -57.8 361 -28.9 378.6 0L0 0Z" fill="#FBAE3C"></path></g></svg>