<?xml version="1.0" encoding="UTF-8"?>
<!DOCTYPE svg PUBLIC "-//W3C//DTD SVG 1.1//EN" "http://www.w3.org/Graphics/SVG/1.1/DTD/svg11.dtd">
<!-- Creator: CorelDRAW 2020 (64-Bit) -->
<svg xmlns="http://www.w3.org/2000/svg" xml:space="preserve" width="85mm" height="80mm" version="1.1" style="shape-rendering:geometricPrecision; text-rendering:geometricPrecision; image-rendering:optimizeQuality; fill-rule:evenodd; clip-rule:evenodd"
viewBox="0 0 8500 8000"
 xmlns:xlink="http://www.w3.org/1999/xlink"
 xmlns:xodm="http://www.corel.com/coreldraw/odm/2003">
 <defs>
  <style type="text/css">
   <![CDATA[
    .fil6 {fill:none}
    .fil3 {fill:#4B0E0B}
    .fil4 {fill:#67170C}
    .fil5 {fill:#6B130F}
    .fil1 {fill:#F3120E}
    .fil2 {fill:#F60900}
    .fil0 {fill:#6B130F;fill-rule:nonzero}
   ]]>
  </style>
    <clipPath id="id0">
     <path d="M3814.9 6179.93l0 235.22 -2272.47 1360.97 -1478.63 0 3751.1 -6536 2384.28 4139.4 821.8 -6.1c525.83,-53.93 781.56,-840.1 87.3,-873.7l-1003.65 0 -606.69 -1058.53 1480.04 0c510.29,0 810.74,-861.39 98.73,-861.39l-2189.58 0 -618.67 -1070.85 2484.8 0c1314.35,0 2269.82,1589.78 1261.39,2630.93 791,715.79 420.8,2192.95 -764.67,2275.27l-1919.9 0 -1515.18 -2637.92 -1592.38 2831.08 764.9 -428.38 827.48 0z"/>
    </clipPath>
    <clipPath id="id1">
     <path d="M3817.38 4912.31l-213.15 367.24 -213.16 367.21 426.31 0 426.29 0 -213.15 -367.21 -213.14 -367.24z"/>
    </clipPath>
 </defs>
 <g id="Capa_x0020_1">
  <metadata id="CorelCorpID_0Corel-Layer"/>
  <g id="_2431362570064">
   <path class="fil0" d="M4822.3 1077.24c-104.18,26.88 -191.32,40.1 -261.44,40.1 -150.32,0 -264.57,-41.22 -342.09,-123.66 -77.73,-82.45 -116.49,-182.58 -116.49,-300.42 0,-123.66 42.34,-231.42 126.8,-322.82 84.68,-91.4 202.07,-137.1 352.17,-137.1 70.56,0 132.62,6.27 186.38,19.04l-21.5 154.8c-68.78,-17.92 -130.39,-26.88 -185.27,-26.88 -92.3,0 -161.08,28.45 -206.55,84.9 -45.7,56.68 -68.33,125.9 -68.33,207.9 0,83.56 25.54,156.37 76.39,218.42 51.08,62.28 121.42,93.2 211.03,93.2 24.87,0 53.77,-2.47 86.7,-7.85 -6.49,-48.61 -9.86,-96.33 -9.86,-143.15 0,-47.04 -4.7,-100.36 -13.88,-159.28l185.94 0c-3.59,67.21 -5.38,135.09 -5.38,203.42 0,49.28 1.79,115.82 5.38,199.38z"/>
   <path id="1" class="fil0" d="M5393.11 476.18l-38.08 153.46c-32.49,-13 -65.19,-19.72 -98.57,-19.72 -64.3,0 -106.64,28.9 -127.25,86.7 0,174.51 1.35,308.93 4.03,403.02l-174.74 0c7.62,-131.73 11.21,-239.26 11.21,-322.82 0,-104.17 -10.98,-202.97 -32.71,-296.16l167.34 -18.37c7.4,48.16 11.21,76.39 11.21,84.68l10.3 0c40.33,-61.61 93.87,-92.52 160.85,-92.52 31.59,0 66.98,7.17 106.41,21.73z"/>
   <path id="2" class="fil0" d="M6064.52 1098.97l-153.46 5.37c-6.94,-23.74 -10.53,-42.56 -10.53,-56.45l-10.53 0c-57.35,47.05 -124.33,70.79 -200.72,70.79 -72.36,0 -126.58,-19.04 -163.09,-56.68 -36.74,-37.86 -54.89,-113.58 -54.89,-226.93 0,-13.45 0.23,-32.49 0.9,-57.13 0.67,-24.42 1.12,-45.93 1.12,-64.3 0,-48.38 -4.26,-125.9 -12.55,-232.31l183.03 -6.5c-6.94,84.01 -10.3,163.54 -10.3,238.81 0,107.31 7.84,179.45 23.74,216.64 16.13,37.19 47.5,55.78 94.32,55.78 51.07,0 95.43,-12.32 132.62,-36.74 0,-230.07 -2.69,-386.44 -7.84,-468.66l177.2 -5.83c-4.48,82.67 -6.72,189.98 -6.72,321.48 0,97.68 6.05,198.49 17.7,302.66z"/>
   <path id="3" class="fil0" d="M6837.63 760.91c0,94.99 -27.11,178.33 -81.32,250.02 -54.22,71.91 -128.37,107.75 -222.46,107.75 -70.12,0 -118.06,-14.78 -144.5,-44.58l-7.84 0c0,107.09 1.57,215.74 4.71,325.51l-178.55 0c7.84,-125.68 11.87,-270.4 11.87,-434.61 0,-211.7 -11.42,-373.22 -34.27,-484.34l168.01 -18.37 9.86 56.45 10.53 0c46.82,-43.23 110.45,-64.96 191.09,-64.96 84.01,0 150.33,30.24 199.39,90.95 49.06,60.49 73.48,132.62 73.48,216.18zm-174.52 17.03c0,-55.11 -13.66,-102.6 -41.22,-142.26 -27.78,-39.87 -65.64,-59.81 -114.25,-59.81 -60.49,0 -104.62,17.7 -132.62,53.09 6.49,122.99 9.85,235.68 9.85,338.06 27.56,21.5 63.18,32.26 106.86,32.26 58.25,0 101.49,-21.51 129.49,-64.75 28,-43.01 41.89,-95.21 41.89,-156.59z"/>
   <path id="4" class="fil0" d="M7589 773.46c0,110.22 -33.82,196.47 -101.7,258.52 -67.66,62.28 -147.64,93.2 -239.49,93.2 -87.59,0 -162.64,-28.23 -225.14,-84.91 -62.5,-56.67 -93.87,-136.43 -93.87,-239.26 0,-110.66 34.05,-197.36 102.38,-259.86 68.33,-62.73 148.31,-93.87 240.16,-93.87 87.14,0 161.97,28.45 224.25,85.58 62.28,57.12 93.41,137.32 93.41,240.6zm-171.15 19.71c0,-63.4 -15.01,-116.71 -44.58,-159.95 -29.8,-43.01 -68.55,-64.52 -116.27,-64.52 -46.37,0 -84.01,20.16 -113.13,60.26 -29.13,40.33 -43.69,90.73 -43.69,151 0,63.4 14.79,116.71 44.58,159.95 29.8,43.01 68.55,64.52 116.27,64.52 46.38,0 84.01,-20.16 113.13,-60.26 29.13,-40.33 43.69,-90.73 43.69,-151z"/>
   <path class="fil1" d="M3814.9 6179.93l0 235.22 -2272.47 1360.97 -1478.63 0 3751.1 -6536 2384.28 4139.4 821.8 -6.1c525.83,-53.93 781.56,-840.1 87.3,-873.7l-1003.65 0 -606.69 -1058.53 1480.04 0c510.29,0 810.74,-861.39 98.73,-861.39l-2189.58 0 -618.67 -1070.85 2484.8 0c1314.35,0 2269.82,1589.78 1261.39,2630.93 791,715.79 420.8,2192.95 -764.67,2275.27l-1919.9 0 -1515.18 -2637.92 -1592.38 2831.08 764.9 -428.38 827.48 0z"/>
   <g>
   </g>
   <g style="clip-path:url(#id0)">
    <g id="_2431362571648">
     <polygon id="_1" class="fil2" points="1792.48,7322.46 2198.55,6624.47 3040.32,5871.24 3814.9,6179.93 "/>
     <polygon class="fil3" points="3814.9,1753.42 5717.3,4542.91 3799.23,1114.44 1939.36,4508.12 "/>
     <path class="fil4" d="M6369.21 5646.76l-170.03 -267.24 819.27 -222.18 441.13 -516.78c327.54,319.91 259.32,1006.2 -312.57,1006.2l-777.8 0z"/>
     <path class="fil4" d="M5630.18 3760.43l-151.38 -325.01 1415.49 -294.09 563.13 -391.39c365.37,357.7 162.78,1010.49 -409.12,1010.49l-1418.12 0z"/>
     <path class="fil4" d="M7063.39 1789.79l-2629.89 4.8 -59.82 16.19 -189 -373.5 3538.22 8.37 823.31 831.69 33.61 562.88 -310.4 -362.54c-235.11,-378.05 -577.44,-623.54 -1071.55,-681.61 -48.08,-5.64 -86.34,-6.68 -134.48,-6.28z"/>
     <polygon class="fil5" points="3814.9,1753.42 3814.9,3777.23 1825.09,7304.02 3814.9,6179.93 4094.68,6447.61 1575.49,7895.52 -54.32,7845.11 2087.54,4249.94 "/>
    </g>
   </g>
   <path class="fil6" d="M3814.9 6179.93l0 235.22 -2272.47 1360.97 -1478.63 0 3751.1 -6536 2384.28 4139.4 821.8 -6.1c525.83,-53.93 781.56,-840.1 87.3,-873.7l-1003.65 0 -606.69 -1058.53 1480.04 0c510.29,0 810.74,-861.39 98.73,-861.39l-2189.58 0 -618.67 -1070.85 2484.8 0c1314.35,0 2269.82,1589.78 1261.39,2630.93 791,715.79 420.8,2192.95 -764.67,2275.27l-1919.9 0 -1515.18 -2637.92 -1592.38 2831.08 764.9 -428.38 827.48 0z"/>
   <path class="fil6" d="M3814.9 6179.93l0 235.22 -2272.47 1360.97 -1478.63 0 3751.1 -6536 2384.28 4139.4 821.8 -6.1c525.83,-53.93 781.56,-840.1 87.3,-873.7l-1003.65 0 -606.69 -1058.53 1480.04 0c510.29,0 810.74,-861.39 98.73,-861.39l-2189.58 0 -618.67 -1070.85 2484.8 0c1314.35,0 2269.82,1589.78 1261.39,2630.93 791,715.79 420.8,2192.95 -764.67,2275.27l-1919.9 0 -1515.18 -2637.92 -1592.38 2831.08 764.9 -428.38 827.48 0z"/>
   <polygon class="fil2" points="3817.38,4912.31 3604.23,5279.55 3391.07,5646.76 3817.38,5646.76 4243.67,5646.76 4030.52,5279.55 "/>
   <g>
   </g>
   <g style="clip-path:url(#id1)">
    <g>
     <rect class="fil4" x="3815.09" y="4765.24" width="602.87" height="1310.54"/>
    </g>
   </g>
   <polygon class="fil6" points="3817.38,4912.31 3604.23,5279.55 3391.07,5646.76 3817.38,5646.76 4243.67,5646.76 4030.52,5279.55 "/>
   <polygon class="fil6" points="3817.38,4912.31 3604.23,5279.55 3391.07,5646.76 3817.38,5646.76 4243.67,5646.76 4030.52,5279.55 "/>
  </g>
 </g>
</svg>
